<mxfile host="app.diagrams.net" modified="2024-01-07T08:15:59.952Z" agent="Mozilla/5.0 (Windows NT 10.0; Win64; x64) AppleWebKit/537.36 (KHTML, like Gecko) Chrome/120.0.0.0 Safari/537.36" etag="xKskeULAIbsbKgQMwHHu" version="22.1.17" type="github">
  <diagram name="第 1 页" id="cSXOt_If06tRuQNw9_Id">
    <mxGraphModel dx="1434" dy="746" grid="1" gridSize="10" guides="1" tooltips="1" connect="1" arrows="1" fold="1" page="1" pageScale="1" pageWidth="583" pageHeight="827" math="0" shadow="0">
      <root>
        <mxCell id="0" />
        <mxCell id="1" parent="0" />
        <mxCell id="D2HSwKxdKyaoGHdWPaQV-1" value="" style="endArrow=none;html=1;rounded=0;" parent="1" edge="1">
          <mxGeometry width="50" height="50" relative="1" as="geometry">
            <mxPoint x="20" y="240" as="sourcePoint" />
            <mxPoint x="1140" y="240" as="targetPoint" />
          </mxGeometry>
        </mxCell>
        <mxCell id="D2HSwKxdKyaoGHdWPaQV-6" value="政府政策与预算" style="text;html=1;strokeColor=none;fillColor=none;align=center;verticalAlign=middle;whiteSpace=wrap;rounded=0;" parent="1" vertex="1">
          <mxGeometry x="1030" y="200" width="100" height="30" as="geometry" />
        </mxCell>
        <mxCell id="D2HSwKxdKyaoGHdWPaQV-7" value="监管机构与协会" style="text;html=1;strokeColor=none;fillColor=none;align=center;verticalAlign=middle;whiteSpace=wrap;rounded=0;" parent="1" vertex="1">
          <mxGeometry x="1040" y="364" width="100" height="30" as="geometry" />
        </mxCell>
        <mxCell id="D2HSwKxdKyaoGHdWPaQV-8" value="相关企业管理" style="text;html=1;strokeColor=none;fillColor=none;align=center;verticalAlign=middle;whiteSpace=wrap;rounded=0;" parent="1" vertex="1">
          <mxGeometry x="1050" y="510" width="100" height="30" as="geometry" />
        </mxCell>
        <mxCell id="D2HSwKxdKyaoGHdWPaQV-9" value="技术和业务管理" style="text;html=1;strokeColor=none;fillColor=none;align=center;verticalAlign=middle;whiteSpace=wrap;rounded=0;" parent="1" vertex="1">
          <mxGeometry x="1040" y="930" width="100" height="30" as="geometry" />
        </mxCell>
        <mxCell id="D2HSwKxdKyaoGHdWPaQV-10" value="事故进程与人员活动" style="text;html=1;strokeColor=none;fillColor=none;align=center;verticalAlign=middle;whiteSpace=wrap;rounded=0;" parent="1" vertex="1">
          <mxGeometry x="1030" y="1150" width="120" height="30" as="geometry" />
        </mxCell>
        <mxCell id="D2HSwKxdKyaoGHdWPaQV-11" value="设备与周围环境" style="text;html=1;strokeColor=none;fillColor=none;align=center;verticalAlign=middle;whiteSpace=wrap;rounded=0;" parent="1" vertex="1">
          <mxGeometry x="1040" y="1440" width="100" height="30" as="geometry" />
        </mxCell>
        <mxCell id="D2HSwKxdKyaoGHdWPaQV-16" value="g01&lt;br&gt;安全发展理念不牢" style="rounded=0;whiteSpace=wrap;html=1;" parent="1" vertex="1">
          <mxGeometry x="345" y="150" width="125" height="40" as="geometry" />
        </mxCell>
        <mxCell id="D2HSwKxdKyaoGHdWPaQV-20" value="r01&lt;br&gt;安全监管不力" style="rounded=0;whiteSpace=wrap;html=1;" parent="1" vertex="1">
          <mxGeometry x="323" y="300" width="120" height="40" as="geometry" />
        </mxCell>
        <mxCell id="D2HSwKxdKyaoGHdWPaQV-21" value="r02&lt;br&gt;执法检查不严" style="rounded=0;whiteSpace=wrap;html=1;" parent="1" vertex="1">
          <mxGeometry x="510" y="300" width="120" height="40" as="geometry" />
        </mxCell>
        <mxCell id="D2HSwKxdKyaoGHdWPaQV-25" value="c01&lt;br&gt;违规出具虚假安全评价报告" style="rounded=0;whiteSpace=wrap;html=1;" parent="1" vertex="1">
          <mxGeometry x="210" y="431" width="150" height="40" as="geometry" />
        </mxCell>
        <mxCell id="D2HSwKxdKyaoGHdWPaQV-26" value="c02&lt;br&gt;违规提供技术服务工作" style="rounded=0;whiteSpace=wrap;html=1;" parent="1" vertex="1">
          <mxGeometry x="520" y="431" width="137" height="40" as="geometry" />
        </mxCell>
        <mxCell id="D2HSwKxdKyaoGHdWPaQV-28" value="c04&lt;br&gt;安全生产责任未落实" style="rounded=0;whiteSpace=wrap;html=1;" parent="1" vertex="1">
          <mxGeometry x="84" y="493" width="158" height="40" as="geometry" />
        </mxCell>
        <mxCell id="D2HSwKxdKyaoGHdWPaQV-31" value="t01&lt;br&gt;应急预案编制与组织演练存在缺陷" style="rounded=0;whiteSpace=wrap;html=1;" parent="1" vertex="1">
          <mxGeometry x="92" y="590" width="208" height="40" as="geometry" />
        </mxCell>
        <mxCell id="D2HSwKxdKyaoGHdWPaQV-32" value="t02&lt;br&gt;安全生产教育培训和技能培训存在缺陷" style="rounded=0;whiteSpace=wrap;html=1;" parent="1" vertex="1">
          <mxGeometry x="338.5" y="585" width="221.5" height="45" as="geometry" />
        </mxCell>
        <mxCell id="D2HSwKxdKyaoGHdWPaQV-35" value="t03&lt;br&gt;检维修与动火作业审批管理不足" style="rounded=0;whiteSpace=wrap;html=1;" parent="1" vertex="1">
          <mxGeometry x="597.5" y="585" width="185" height="50" as="geometry" />
        </mxCell>
        <mxCell id="D2HSwKxdKyaoGHdWPaQV-36" value="t04&lt;br&gt;未按规定逐步完善修订并落实操作规程" style="rounded=0;whiteSpace=wrap;html=1;" parent="1" vertex="1">
          <mxGeometry x="800" y="590" width="210" height="43" as="geometry" />
        </mxCell>
        <mxCell id="D2HSwKxdKyaoGHdWPaQV-42" value="t07&lt;br&gt;设备巡查与管理漏洞严重" style="rounded=0;whiteSpace=wrap;html=1;" parent="1" vertex="1">
          <mxGeometry x="560" y="657" width="170" height="53" as="geometry" />
        </mxCell>
        <mxCell id="D2HSwKxdKyaoGHdWPaQV-43" value="t08&lt;br&gt;施工方案和技术交底不完善" style="rounded=0;whiteSpace=wrap;html=1;" parent="1" vertex="1">
          <mxGeometry x="750" y="657" width="162.5" height="53" as="geometry" />
        </mxCell>
        <mxCell id="D2HSwKxdKyaoGHdWPaQV-44" value="d09&lt;br&gt;对施工单位、技术服务公司、承包商等监管不到位" style="rounded=0;whiteSpace=wrap;html=1;" parent="1" vertex="1">
          <mxGeometry x="950" y="660" width="210" height="70" as="geometry" />
        </mxCell>
        <mxCell id="D2HSwKxdKyaoGHdWPaQV-46" value="t11&lt;br&gt;开展风险评估和危险源辨识评估工作不到位" style="rounded=0;whiteSpace=wrap;html=1;" parent="1" vertex="1">
          <mxGeometry x="330" y="735" width="130" height="55" as="geometry" />
        </mxCell>
        <mxCell id="D2HSwKxdKyaoGHdWPaQV-47" value="t12&lt;br&gt;重大危险源管控和防范措施有缺陷" style="rounded=0;whiteSpace=wrap;html=1;" parent="1" vertex="1">
          <mxGeometry x="510" y="735" width="100" height="55" as="geometry" />
        </mxCell>
        <mxCell id="D2HSwKxdKyaoGHdWPaQV-60" value="s04&lt;br&gt;盲目抢修作业与施救" style="rounded=0;whiteSpace=wrap;html=1;" parent="1" vertex="1">
          <mxGeometry x="597.5" y="1000" width="132.5" height="50" as="geometry" />
        </mxCell>
        <mxCell id="D2HSwKxdKyaoGHdWPaQV-61" value="s08&lt;br&gt;作业未履行职责或遵守规程和安全协议" style="rounded=0;whiteSpace=wrap;html=1;" parent="1" vertex="1">
          <mxGeometry x="270" y="1077.5" width="110" height="60" as="geometry" />
        </mxCell>
        <mxCell id="D2HSwKxdKyaoGHdWPaQV-63" value="s05&lt;br&gt;应急处理能力较差" style="rounded=0;whiteSpace=wrap;html=1;" parent="1" vertex="1">
          <mxGeometry x="780" y="1000" width="120" height="40" as="geometry" />
        </mxCell>
        <mxCell id="D2HSwKxdKyaoGHdWPaQV-65" value="s01&lt;br&gt;员工风险识别不足" style="rounded=0;whiteSpace=wrap;html=1;" parent="1" vertex="1">
          <mxGeometry x="80" y="1000" width="120" height="40" as="geometry" />
        </mxCell>
        <mxCell id="D2HSwKxdKyaoGHdWPaQV-68" value="s02&lt;br&gt;员工安全意识较差" style="rounded=0;whiteSpace=wrap;html=1;" parent="1" vertex="1">
          <mxGeometry x="260" y="1000" width="120" height="40" as="geometry" />
        </mxCell>
        <mxCell id="D2HSwKxdKyaoGHdWPaQV-70" value="s09&lt;br&gt;员工劳动纪律涣散且无责任心" style="rounded=0;whiteSpace=wrap;html=1;" parent="1" vertex="1">
          <mxGeometry x="422.5" y="1080" width="92.5" height="60" as="geometry" />
        </mxCell>
        <mxCell id="D2HSwKxdKyaoGHdWPaQV-71" value="s03&lt;br&gt;专业知识技能掌握不熟练" style="rounded=0;whiteSpace=wrap;html=1;" parent="1" vertex="1">
          <mxGeometry x="423" y="995" width="140" height="60" as="geometry" />
        </mxCell>
        <mxCell id="D2HSwKxdKyaoGHdWPaQV-72" value="s07&lt;br&gt;现场安全管理缺失" style="rounded=0;whiteSpace=wrap;html=1;" parent="1" vertex="1">
          <mxGeometry x="50" y="1080" width="170" height="40" as="geometry" />
        </mxCell>
        <mxCell id="cpaYwVjUg7fbwdwy47s0-5" value="c03&lt;br&gt;施工质量或设备设计未达标" style="rounded=0;whiteSpace=wrap;html=1;" parent="1" vertex="1">
          <mxGeometry x="810" y="440" width="150" height="40" as="geometry" />
        </mxCell>
        <mxCell id="cpaYwVjUg7fbwdwy47s0-6" value="c05&lt;br&gt;对所属企业安全生产监督指导不力" style="rounded=0;whiteSpace=wrap;html=1;" parent="1" vertex="1">
          <mxGeometry x="330" y="500" width="187" height="40" as="geometry" />
        </mxCell>
        <mxCell id="cpaYwVjUg7fbwdwy47s0-7" value="c06&lt;br&gt;安全检查和管理制度存在缺陷" style="rounded=0;whiteSpace=wrap;html=1;" parent="1" vertex="1">
          <mxGeometry x="575.5" y="500" width="169" height="40" as="geometry" />
        </mxCell>
        <mxCell id="cpaYwVjUg7fbwdwy47s0-11" value="t13&lt;br&gt;违反建设项目安全设施“三同时”规定" style="rounded=0;whiteSpace=wrap;html=1;" parent="1" vertex="1">
          <mxGeometry x="651" y="740" width="129" height="50" as="geometry" />
        </mxCell>
        <mxCell id="cpaYwVjUg7fbwdwy47s0-14" value="s10&lt;br&gt;对交接（替）班和巡视制度落实不到位" style="rounded=0;whiteSpace=wrap;html=1;" parent="1" vertex="1">
          <mxGeometry x="542" y="1082.5" width="115" height="55" as="geometry" />
        </mxCell>
        <mxCell id="cpaYwVjUg7fbwdwy47s0-15" value="s06&lt;br&gt;防护措施执行不到位" style="rounded=0;whiteSpace=wrap;html=1;" parent="1" vertex="1">
          <mxGeometry x="940" y="1010" width="130" height="50" as="geometry" />
        </mxCell>
        <mxCell id="cpaYwVjUg7fbwdwy47s0-17" value="e01&lt;br&gt;密闭环境通风不良" style="rounded=0;whiteSpace=wrap;html=1;" parent="1" vertex="1">
          <mxGeometry x="60" y="1270" width="120" height="40" as="geometry" />
        </mxCell>
        <mxCell id="7SNBnwVA3aRYyQUwE5cQ-1" value="g02&lt;br&gt;属地安全生产责任制未贯彻落实" style="rounded=0;whiteSpace=wrap;html=1;" vertex="1" parent="1">
          <mxGeometry x="651" y="150" width="190" height="40" as="geometry" />
        </mxCell>
        <mxCell id="7SNBnwVA3aRYyQUwE5cQ-2" value="r03&lt;br&gt;违规审批许可" style="rounded=0;whiteSpace=wrap;html=1;" vertex="1" parent="1">
          <mxGeometry x="710" y="300" width="120" height="40" as="geometry" />
        </mxCell>
        <mxCell id="7SNBnwVA3aRYyQUwE5cQ-3" value="c07&lt;br&gt;安全生产投入严重不足" style="rounded=0;whiteSpace=wrap;html=1;" vertex="1" parent="1">
          <mxGeometry x="860" y="500" width="150" height="40" as="geometry" />
        </mxCell>
        <mxCell id="7SNBnwVA3aRYyQUwE5cQ-4" value="" style="endArrow=none;html=1;rounded=0;" edge="1" parent="1">
          <mxGeometry width="50" height="50" relative="1" as="geometry">
            <mxPoint x="20" y="412.5" as="sourcePoint" />
            <mxPoint x="1140" y="412.5" as="targetPoint" />
          </mxGeometry>
        </mxCell>
        <mxCell id="7SNBnwVA3aRYyQUwE5cQ-5" value="" style="endArrow=none;html=1;rounded=0;" edge="1" parent="1">
          <mxGeometry width="50" height="50" relative="1" as="geometry">
            <mxPoint x="20" y="560" as="sourcePoint" />
            <mxPoint x="1140" y="560" as="targetPoint" />
          </mxGeometry>
        </mxCell>
        <mxCell id="7SNBnwVA3aRYyQUwE5cQ-6" value="" style="endArrow=none;html=1;rounded=0;" edge="1" parent="1">
          <mxGeometry width="50" height="50" relative="1" as="geometry">
            <mxPoint x="20" y="970" as="sourcePoint" />
            <mxPoint x="1140" y="970" as="targetPoint" />
          </mxGeometry>
        </mxCell>
        <mxCell id="7SNBnwVA3aRYyQUwE5cQ-7" value="" style="endArrow=none;html=1;rounded=0;" edge="1" parent="1">
          <mxGeometry width="50" height="50" relative="1" as="geometry">
            <mxPoint x="20" y="1243" as="sourcePoint" />
            <mxPoint x="1140" y="1243" as="targetPoint" />
          </mxGeometry>
        </mxCell>
        <mxCell id="7SNBnwVA3aRYyQUwE5cQ-8" value="" style="endArrow=none;html=1;rounded=0;" edge="1" parent="1">
          <mxGeometry width="50" height="50" relative="1" as="geometry">
            <mxPoint x="20" y="1520" as="sourcePoint" />
            <mxPoint x="1140" y="1520" as="targetPoint" />
          </mxGeometry>
        </mxCell>
        <mxCell id="7SNBnwVA3aRYyQUwE5cQ-10" value="t05&lt;br&gt;安全意识薄弱和隐患排查治理力度不够" style="rounded=0;whiteSpace=wrap;html=1;" vertex="1" parent="1">
          <mxGeometry x="70" y="657" width="210" height="43" as="geometry" />
        </mxCell>
        <mxCell id="7SNBnwVA3aRYyQUwE5cQ-11" value="t06&lt;br&gt;事故整改措施不落实" style="rounded=0;whiteSpace=wrap;html=1;" vertex="1" parent="1">
          <mxGeometry x="310" y="657" width="210" height="43" as="geometry" />
        </mxCell>
        <mxCell id="7SNBnwVA3aRYyQUwE5cQ-13" value="t10&lt;br&gt;物资采购管理存在漏洞" style="rounded=0;whiteSpace=wrap;html=1;" vertex="1" parent="1">
          <mxGeometry x="70" y="740" width="200" height="50" as="geometry" />
        </mxCell>
        <mxCell id="7SNBnwVA3aRYyQUwE5cQ-14" value="t14&lt;br&gt;工艺流程管理存在漏洞" style="rounded=0;whiteSpace=wrap;html=1;" vertex="1" parent="1">
          <mxGeometry x="820" y="745" width="130" height="45" as="geometry" />
        </mxCell>
        <mxCell id="7SNBnwVA3aRYyQUwE5cQ-16" value="s11&lt;br&gt;员工不具备从业资格" style="rounded=0;whiteSpace=wrap;html=1;" vertex="1" parent="1">
          <mxGeometry x="700" y="1082.5" width="120" height="40" as="geometry" />
        </mxCell>
        <mxCell id="7SNBnwVA3aRYyQUwE5cQ-17" value="s12&lt;br&gt;发生泄露事故" style="rounded=0;whiteSpace=wrap;html=1;" vertex="1" parent="1">
          <mxGeometry x="880" y="1082.5" width="170" height="40" as="geometry" />
        </mxCell>
        <mxCell id="7SNBnwVA3aRYyQUwE5cQ-19" value="s13&lt;br&gt;发生火灾事故" style="rounded=0;whiteSpace=wrap;html=1;" vertex="1" parent="1">
          <mxGeometry x="20" y="1170" width="170" height="40" as="geometry" />
        </mxCell>
        <mxCell id="7SNBnwVA3aRYyQUwE5cQ-20" value="s14&lt;br&gt;发生爆炸事故" style="rounded=0;whiteSpace=wrap;html=1;" vertex="1" parent="1">
          <mxGeometry x="193" y="1170" width="170" height="40" as="geometry" />
        </mxCell>
        <mxCell id="7SNBnwVA3aRYyQUwE5cQ-21" value="s15&lt;br&gt;发生中毒窒息 事故" style="rounded=0;whiteSpace=wrap;html=1;" vertex="1" parent="1">
          <mxGeometry x="385" y="1170" width="170" height="40" as="geometry" />
        </mxCell>
        <mxCell id="7SNBnwVA3aRYyQUwE5cQ-22" value="s16&lt;br&gt;发生坍塌事故" style="rounded=0;whiteSpace=wrap;html=1;" vertex="1" parent="1">
          <mxGeometry x="580" y="1170" width="170" height="40" as="geometry" />
        </mxCell>
        <mxCell id="7SNBnwVA3aRYyQUwE5cQ-23" value="s17&lt;br&gt;发生机械事故" style="rounded=0;whiteSpace=wrap;html=1;" vertex="1" parent="1">
          <mxGeometry x="760" y="1170" width="170" height="40" as="geometry" />
        </mxCell>
        <mxCell id="7SNBnwVA3aRYyQUwE5cQ-24" value="s18&lt;br&gt;发生坠落事故" style="rounded=0;whiteSpace=wrap;html=1;" vertex="1" parent="1">
          <mxGeometry x="960" y="1180" width="170" height="40" as="geometry" />
        </mxCell>
        <mxCell id="7SNBnwVA3aRYyQUwE5cQ-25" value="e09&lt;br&gt;密封或隔离失效致泄露" style="rounded=0;whiteSpace=wrap;html=1;" vertex="1" parent="1">
          <mxGeometry x="422" y="1380" width="120" height="40" as="geometry" />
        </mxCell>
        <mxCell id="7SNBnwVA3aRYyQUwE5cQ-26" value="e07&lt;br&gt;装备设计有缺陷或设备异常" style="rounded=0;whiteSpace=wrap;html=1;" vertex="1" parent="1">
          <mxGeometry x="60" y="1360" width="80" height="80" as="geometry" />
        </mxCell>
        <mxCell id="7SNBnwVA3aRYyQUwE5cQ-27" value="e08&lt;br&gt;防爆工具或电器不符合要求" style="rounded=0;whiteSpace=wrap;html=1;" vertex="1" parent="1">
          <mxGeometry x="225" y="1370" width="120" height="40" as="geometry" />
        </mxCell>
        <mxCell id="7SNBnwVA3aRYyQUwE5cQ-28" value="e02&lt;br&gt;安全警示与警戒不足" style="rounded=0;whiteSpace=wrap;html=1;" vertex="1" parent="1">
          <mxGeometry x="280" y="1270" width="120" height="40" as="geometry" />
        </mxCell>
        <mxCell id="7SNBnwVA3aRYyQUwE5cQ-29" value="e03&lt;br&gt;消防预警系统失效" style="rounded=0;whiteSpace=wrap;html=1;" vertex="1" parent="1">
          <mxGeometry x="455.5" y="1260" width="120" height="40" as="geometry" />
        </mxCell>
        <mxCell id="7SNBnwVA3aRYyQUwE5cQ-30" value="e04&lt;br&gt;危化品量或有毒气体超标" style="rounded=0;whiteSpace=wrap;html=1;" vertex="1" parent="1">
          <mxGeometry x="650" y="1260" width="120" height="40" as="geometry" />
        </mxCell>
        <mxCell id="7SNBnwVA3aRYyQUwE5cQ-31" value="e10&lt;br&gt;达到一定浓度的混合物遇到着火源" style="rounded=0;whiteSpace=wrap;html=1;" vertex="1" parent="1">
          <mxGeometry x="590" y="1380" width="120" height="40" as="geometry" />
        </mxCell>
        <mxCell id="7SNBnwVA3aRYyQUwE5cQ-32" value="e05&lt;br&gt;安全距离不足" style="rounded=0;whiteSpace=wrap;html=1;" vertex="1" parent="1">
          <mxGeometry x="820" y="1270" width="120" height="40" as="geometry" />
        </mxCell>
        <mxCell id="7SNBnwVA3aRYyQUwE5cQ-33" value="e11&lt;br&gt;物料排放处理不干净" style="rounded=0;whiteSpace=wrap;html=1;" vertex="1" parent="1">
          <mxGeometry x="780" y="1390" width="120" height="40" as="geometry" />
        </mxCell>
        <mxCell id="7SNBnwVA3aRYyQUwE5cQ-34" value="e06&lt;br&gt;管道损坏或失效致泄露" style="rounded=0;whiteSpace=wrap;html=1;" vertex="1" parent="1">
          <mxGeometry x="985" y="1270" width="135" height="60" as="geometry" />
        </mxCell>
        <mxCell id="7SNBnwVA3aRYyQUwE5cQ-35" value="e12&lt;br&gt;危化品储存方式或者数量不符合规定" style="rounded=0;whiteSpace=wrap;html=1;" vertex="1" parent="1">
          <mxGeometry x="950" y="1380" width="120" height="40" as="geometry" />
        </mxCell>
      </root>
    </mxGraphModel>
  </diagram>
</mxfile>
